<svg width="16" height="15" viewBox="0 0 16 15" fill="none" xmlns="http://www.w3.org/2000/svg">
<path id="Vector" d="M10.782 8.64738C11.0875 8.64738 11.3445 8.80168 11.5667 9.11471C11.7875 9.42479 11.9 9.80835 11.9 10.261C11.9 10.7158 11.7889 11.0994 11.5667 11.4095C11.3445 11.7195 11.0839 11.8753 10.782 11.8753C10.4609 11.8753 10.1846 11.721 9.96244 11.4095C9.74384 11.0994 9.63133 10.7158 9.63133 10.261C9.63133 9.80614 9.74028 9.42405 9.96244 9.11471C10.1846 8.80095 10.4623 8.64738 10.782 8.64738ZM14.7119 4.44804C15.5678 5.40547 16 6.56718 16 7.92949C16 8.81344 15.8989 9.60922 15.7045 10.3168C15.5065 11.0208 15.2566 11.5976 14.9583 12.0384C14.6542 12.483 14.2868 12.8732 13.8439 13.2031C13.401 13.5418 12.993 13.7836 12.6248 13.9394C12.2567 14.0951 11.833 14.2156 11.3538 14.2994C10.8803 14.3854 10.5221 14.4317 10.2736 14.4449C10.0344 14.4559 9.77374 14.4611 9.49248 14.4611C9.42982 14.4611 9.21834 14.4684 8.86658 14.4787C8.52336 14.4934 8.22857 14.5 7.99929 14.5C7.77001 14.5 7.47521 14.4927 7.132 14.4787C6.78309 14.4677 6.56947 14.4611 6.5061 14.4611C6.22483 14.4611 5.96208 14.4574 5.72426 14.4449C5.47503 14.4324 5.11758 14.3861 4.64619 14.2994C4.16484 14.2171 3.7433 14.0988 3.37374 13.9394C3.00561 13.785 2.59831 13.5418 2.15754 13.2031C1.71322 12.8695 1.34508 12.4808 1.04103 12.0384C0.742679 11.5976 0.491322 11.0208 0.294793 10.3168C0.101113 9.60922 0 8.81344 0 7.92949C0 6.56718 0.430797 5.40547 1.28883 4.44804C1.19413 4.40028 1.18914 3.9234 1.27388 3.01372C1.35007 2.10332 1.53734 1.26492 1.84139 0.5C2.91162 0.617567 4.22822 1.24067 5.80543 2.36564C6.33805 2.22235 7.0672 2.14887 7.99715 2.14887C8.97268 2.14887 9.70182 2.22235 10.1896 2.36564C10.9081 1.86524 11.5959 1.45523 12.2517 1.14368C12.9182 0.8358 13.3974 0.653572 13.6993 0.606545L14.1508 0.5C14.4563 1.26492 14.6435 2.10552 14.7204 3.01372C14.8087 3.92266 14.8037 4.40028 14.7097 4.44804H14.7119ZM8.03774 13.6704C9.96244 13.6704 11.4136 13.4323 12.3991 12.9555C13.3818 12.4771 13.8816 11.4932 13.8816 10.0104C13.8816 9.15071 13.5676 8.43061 12.9403 7.85601C12.617 7.54445 12.2389 7.35561 11.8045 7.28213C11.3809 7.21012 10.7265 7.21012 9.84281 7.28213C8.96271 7.35561 8.3603 7.38868 8.03632 7.38868C7.59555 7.38868 7.11705 7.36443 6.52319 7.31667C5.92933 7.27111 5.46435 7.24172 5.13182 7.22702C4.79146 7.216 4.42973 7.26009 4.03667 7.35341C3.64005 7.45114 3.31891 7.61573 3.05901 7.8538C2.46088 8.4049 2.15754 9.12132 2.15754 10.0082C2.15754 11.4918 2.64459 12.4749 3.61727 12.9518C4.58923 13.4316 6.03614 13.6682 7.96155 13.6682L8.03774 13.6704ZM5.25429 8.64738C5.55621 8.64738 5.81611 8.80168 6.03614 9.11471C6.25688 9.42479 6.36867 9.80835 6.36867 10.261C6.36867 10.7158 6.2583 11.0994 6.03614 11.4095C5.81611 11.7195 5.55407 11.8753 5.25429 11.8753C4.93031 11.8753 4.65545 11.721 4.43329 11.4095C4.21326 11.0994 4.10076 10.7158 4.10076 10.261C4.10076 9.80614 4.21113 9.42405 4.43329 9.11471C4.65545 8.80095 4.93102 8.64738 5.25429 8.64738Z" fill="white"/>
</svg>
