<svg width="35" height="35" viewBox="0 0 35 35" fill="none" xmlns="http://www.w3.org/2000/svg">
<path id="Vector" d="M17.5 0C8.11205 0 0.5 8.03906 0.5 17.9453C0.5 25.875 5.37232 32.5938 12.1268 34.9688C12.233 34.9922 12.3241 35 12.4152 35C13.0451 35 13.2879 34.5234 13.2879 34.1094C13.2879 33.6797 13.2728 32.5547 13.2652 31.0547C12.6277 31.2031 12.0585 31.2656 11.55 31.2656C8.27902 31.2656 7.53527 28.6484 7.53527 28.6484C6.76116 26.5781 5.64554 26.0234 5.64554 26.0234C4.16563 24.9531 5.63795 24.9219 5.75179 24.9219H5.75938C7.46696 25.0781 8.3625 26.7812 8.3625 26.7812C9.2125 28.3125 10.3509 28.7422 11.3679 28.7422C12.1647 28.7422 12.8857 28.4766 13.3107 28.2734C13.4625 27.1172 13.9027 26.3281 14.3884 25.875C10.6165 25.4219 6.64732 23.8828 6.64732 17.0078C6.64732 15.0469 7.30759 13.4453 8.39286 12.1953C8.2183 11.7422 7.63393 9.91406 8.55982 7.44531C8.55982 7.44531 8.68125 7.40625 8.93929 7.40625C9.55402 7.40625 10.9429 7.64844 13.2348 9.28906C14.5933 8.89062 16.0429 8.69531 17.4924 8.6875C18.9344 8.69531 20.3915 8.89062 21.75 9.28906C24.042 7.64844 25.4308 7.40625 26.0455 7.40625C26.3036 7.40625 26.425 7.44531 26.425 7.44531C27.3509 9.91406 26.7665 11.7422 26.592 12.1953C27.6772 13.4531 28.3375 15.0547 28.3375 17.0078C28.3375 23.8984 24.3607 25.4141 20.5737 25.8594C21.1808 26.4141 21.7272 27.5078 21.7272 29.1797C21.7272 31.5781 21.7045 33.5156 21.7045 34.1016C21.7045 34.5234 21.9397 35 22.5696 35C22.6607 35 22.767 34.9922 22.8732 34.9688C29.6353 32.5938 34.5 25.8672 34.5 17.9453C34.5 8.03906 26.8879 0 17.5 0Z" fill="white"/>
</svg>
