<svg stroke="none" width="39" height="39" viewBox="0 0 39 39" fill="none" xmlns="http://www.w3.org/2000/svg">
<g id="Frame">
<path id="Vector" d="M19.5015 14.5533C16.706 14.5533 14.4247 16.7762 14.4247 19.5C14.4247 22.2238 16.706 24.4467 19.5015 24.4467C22.297 24.4467 24.5784 22.2238 24.5784 19.5C24.5784 16.7762 22.297 14.5533 19.5015 14.5533ZM34.7283 19.5C34.7283 17.4515 34.7473 15.4217 34.6293 13.3769C34.5112 11.0019 33.9551 8.89412 32.1727 7.1574C30.3865 5.41697 28.227 4.87889 25.7895 4.76385C23.6872 4.64881 21.6039 4.66736 19.5053 4.66736C17.403 4.66736 15.3197 4.64881 13.2212 4.76385C10.7837 4.87889 8.62037 5.42068 6.83795 7.1574C5.05172 8.89783 4.49947 11.0019 4.38141 13.3769C4.26334 15.4254 4.28238 17.4553 4.28238 19.5C4.28238 21.5447 4.26334 23.5783 4.38141 25.623C4.49947 27.998 5.05553 30.1058 6.83795 31.8426C8.62418 33.583 10.7837 34.1211 13.2212 34.2361C15.3235 34.3512 17.4068 34.3326 19.5053 34.3326C21.6077 34.3326 23.691 34.3512 25.7895 34.2361C28.227 34.1211 30.3903 33.5793 32.1727 31.8426C33.9589 30.1021 34.5112 27.998 34.6293 25.623C34.7511 23.5783 34.7283 21.5484 34.7283 19.5ZM19.5015 27.1111C15.1788 27.1111 11.6901 23.7119 11.6901 19.5C11.6901 15.2881 15.1788 11.8888 19.5015 11.8888C23.8243 11.8888 27.3129 15.2881 27.3129 19.5C27.3129 23.7119 23.8243 27.1111 19.5015 27.1111ZM27.6329 13.3547C26.6236 13.3547 25.8086 12.5605 25.8086 11.5771C25.8086 10.5937 26.6236 9.79959 27.6329 9.79959C28.6421 9.79959 29.4572 10.5937 29.4572 11.5771C29.4575 11.8106 29.4105 12.0419 29.3189 12.2577C29.2274 12.4735 29.093 12.6696 28.9235 12.8347C28.7541 12.9998 28.5528 13.1307 28.3314 13.22C28.1099 13.3092 27.8725 13.355 27.6329 13.3547Z" fill="white"/>
</g>
</svg>
