<svg width="24" height="23" viewBox="0 0 24 23" fill="none" xmlns="http://www.w3.org/2000/svg">
<g id="Frame">
<path id="Vector" d="M13.0646 22.425C15.3691 19.541 20.625 12.5512 20.625 8.625C20.625 3.86328 16.7617 0 12 0C7.23828 0 3.375 3.86328 3.375 8.625C3.375 12.5512 8.63086 19.541 10.9354 22.425C11.4879 23.1123 12.5121 23.1123 13.0646 22.425ZM12 5.75C12.7625 5.75 13.4938 6.0529 14.0329 6.59207C14.5721 7.13124 14.875 7.8625 14.875 8.625C14.875 9.3875 14.5721 10.1188 14.0329 10.6579C13.4938 11.1971 12.7625 11.5 12 11.5C11.2375 11.5 10.5062 11.1971 9.96707 10.6579C9.4279 10.1188 9.125 9.3875 9.125 8.625C9.125 7.8625 9.4279 7.13124 9.96707 6.59207C10.5062 6.0529 11.2375 5.75 12 5.75Z" fill="white"/>
</g>
</svg>
