<?xml version="1.0" encoding="utf-8"?>
<!-- Generator: Adobe Illustrator 27.0.0, SVG Export Plug-In . SVG Version: 6.00 Build 0)  -->
<svg version="1.1" id="Layer_1" xmlns="http://www.w3.org/2000/svg" xmlns:xlink="http://www.w3.org/1999/xlink" x="0px" y="0px"
	 viewBox="0 0 400 400" style="enable-background:new 0 0 400 400;" xml:space="preserve">
<style type="text/css">
	.st0{fill:#39B54A;stroke:#000000;stroke-miterlimit:10;}
	.st1{fill:#FFFFFF;}
</style>
<path class="st0" d="M155.49,72.5H141.5v192h-60v-192H68.36c-5.55,0-8.03-6.97-3.73-10.48l43.57-35.53c2.17-1.77,5.29-1.77,7.46,0
	l43.57,35.53C163.53,65.53,161.05,72.5,155.49,72.5z"/>
<path class="st0" d="M265.5,265.5v59h-193v16.33c0,5.56-6.97,8.04-10.48,3.73l-37.48-45.95c-1.77-2.17-1.77-5.29,0-7.46l37.48-45.96
	c3.51-4.3,10.48-1.82,10.48,3.74v16.57H265.5z"/>
<path class="st0" d="M382.46,114.61l-37.48,45.95c-3.51,4.31-10.48,1.83-10.48-3.73V140.5h-193v-60h193V64.93
	c0-5.56,6.97-8.04,10.48-3.74l37.48,45.96C384.23,109.32,384.23,112.44,382.46,114.61z"/>
<path class="st0" d="M345.67,341.98l-45.96,37.48c-2.17,1.77-5.29,1.77-7.46,0l-45.95-37.48c-4.31-3.51-1.83-10.48,3.73-10.48h15.47
	v-191h60v191h16.43C347.49,331.5,349.97,338.47,345.67,341.98z"/>
<path class="st1" d="M142.21,170.42c-0.79-0.07-1.14-0.94-0.56-1.44c5.97-5.17,26.5-22,36.32-18.15
	c11.56,4.53,31.37,46.79,33.02,52.83c1.63,5.96,52.38-96.78,161.88-141.58c0.94-0.38,1.77,0.69,1.04,1.36
	c-19.64,18.04-116.57,110.21-147.11,198.98c-0.12,0.35-0.47,0.58-0.87,0.58H196.2c-0.41,0-0.77-0.24-0.88-0.6
	C192.87,254.53,166.78,172.6,142.21,170.42z"/>
</svg>
